# This file uses centimeters as units for non-parametric coordinates.

mtllib grid_grass.mtl
g default
v -2.500000 -5.000000 2.500000
v 2.500000 -5.000000 2.500000
v -2.500000 0.000000 2.500000
v 2.500000 0.000000 2.500000
v -2.500000 0.000000 -2.500000
v 2.500000 0.000000 -2.500000
v -2.500000 -5.000000 -2.500000
v 2.500000 -5.000000 -2.500000
v -2.018518 0.000000 2.018518
v -1.537037 -0.293053 1.537037
v -1.055556 0.000000 1.055556
v 2.018518 0.000000 2.018518
v 1.537037 -0.293053 1.537037
v 1.055556 0.000000 1.055556
v 2.018518 0.000000 -2.018518
v 1.537037 -0.293053 -1.537037
v 1.055556 0.000000 -1.055556
v -2.018518 0.000000 -2.018518
v -1.537037 -0.293053 -1.537037
v -1.055556 0.000000 -1.055556
v -2.500000 -2.026872 2.500000
v -2.500000 -2.026872 -2.500000
v 2.500000 -2.026872 -2.500000
v 2.500000 -2.026872 2.500000
v -2.500000 -2.629434 2.500000
v -2.500000 -2.629434 -2.500000
v 2.500000 -2.629434 -2.500000
v 2.500000 -2.629434 2.500000
v -2.355094 -2.322294 2.355094
v -2.355094 -2.322294 -2.355094
v 2.355094 -2.322294 -2.355094
v 2.355094 -2.322294 2.355094
vt 0.006661 0.807263
vt 0.192423 0.807263
vt 0.192423 0.895335
vt 0.006661 0.895335
vt 0.006661 0.807263
vt 0.192423 0.807263
vt 0.007629 0.008757
vt 0.090413 0.008757
vt 0.007629 0.091541
vt 0.090413 0.091541
vt 0.006661 0.807263
vt 0.192423 0.807263
vt 0.192423 0.895335
vt 0.006661 0.895335
vt 0.260999 0.861342
vt 0.338602 0.861342
vt 0.338602 0.938945
vt 0.260999 0.938945
vt 0.207902 0.808246
vt 0.391699 0.808246
vt 0.374000 0.825945
vt 0.225601 0.825945
vt 0.356301 0.843643
vt 0.243300 0.843643
vt 0.391699 0.992042
vt 0.374000 0.974343
vt 0.006661 0.917722
vt 0.192423 0.917722
vt 0.192423 0.895335
vt 0.006661 0.895335
vt 0.192423 0.993025
vt 0.006661 0.993025
vt 0.006661 0.917722
vt 0.192423 0.917722
vt 0.192423 0.895335
vt 0.006661 0.895335
vt 0.192423 0.993025
vt 0.006661 0.993025
vt 0.192423 0.906746
vt 0.006661 0.906746
vt 0.006661 0.807263
vt 0.192423 0.807263
vt 0.192423 0.906746
vt 0.006661 0.906746
vt 0.356301 0.956644
vt 0.207902 0.992042
vt 0.225601 0.974343
vt 0.243300 0.956644
vt 0.192423 0.993025
vt 0.006661 0.993025
vt 0.006661 0.917722
vt 0.192423 0.917722
vt 0.006661 0.917722
vt 0.192423 0.917722
vt 0.192423 0.993025
vt 0.006661 0.993025
vt 0.192423 0.906746
vt 0.006661 0.906746
vt 0.192423 0.906746
vt 0.006661 0.906746
vt 0.192423 0.906746
vt 0.006661 0.906746
vt 0.192423 0.917722
vt 0.006661 0.917722
vt 0.192423 0.895335
vt 0.006661 0.895335
vt 0.192423 0.906746
vt 0.006661 0.906746
vt 0.006661 0.895335
vt 0.192423 0.895335
vt 0.192423 0.917722
vt 0.006661 0.917722
vn 0.000000 0.000000 1.000000
vn 0.000000 0.000000 1.000000
vn 0.000000 0.000000 1.000000
vn 0.000000 0.000000 1.000000
vn 0.000000 1.000000 0.000000
vn 0.000000 1.000000 0.000000
vn 0.000000 1.000000 0.000000
vn 0.000000 1.000000 0.000000
vn 0.000000 0.000000 -1.000000
vn 0.000000 0.000000 -1.000000
vn 0.000000 0.000000 -1.000000
vn 0.000000 0.000000 -1.000000
vn 0.000000 -1.000000 0.000000
vn 0.000000 -1.000000 0.000000
vn 0.000000 -1.000000 0.000000
vn 0.000000 -1.000000 0.000000
vn 1.000000 0.000000 0.000000
vn 1.000000 0.000000 0.000000
vn 1.000000 0.000000 0.000000
vn 1.000000 0.000000 0.000000
vn -1.000000 0.000000 0.000000
vn -1.000000 0.000000 0.000000
vn -1.000000 0.000000 0.000000
vn -1.000000 0.000000 0.000000
vn 0.000000 1.000000 0.000000
vn 0.000000 1.000000 0.000000
vn 0.000000 1.000000 0.000000
vn 0.000000 1.000000 0.000000
vn 0.279535 0.918543 -0.279535
vn -0.279535 0.918543 -0.279535
vn -0.167557 0.971519 -0.167557
vn 0.167557 0.971519 -0.167557
vn 0.279535 0.918543 0.279535
vn -0.279535 0.918543 0.279535
vn 0.000000 1.000000 0.000000
vn 0.000000 1.000000 0.000000
vn -0.279535 0.918543 0.279535
vn -0.167557 0.971519 0.167557
vn 0.279535 0.918543 -0.279535
vn 0.000000 1.000000 0.000000
vn 0.000000 1.000000 0.000000
vn 0.279535 0.918543 0.279535
vn 0.167557 0.971519 0.167557
vn -0.279535 0.918543 -0.279535
vn -1.000000 0.000000 0.000000
vn -1.000000 0.000000 0.000000
vn -1.000000 0.000000 0.000000
vn -1.000000 0.000000 0.000000
vn 0.000000 0.000000 -1.000000
vn 0.000000 0.000000 -1.000000
vn 0.000000 0.000000 -1.000000
vn 0.000000 0.000000 -1.000000
vn 1.000000 0.000000 0.000000
vn 1.000000 0.000000 0.000000
vn 1.000000 0.000000 0.000000
vn 1.000000 0.000000 0.000000
vn 0.000000 0.000000 1.000000
vn 0.000000 0.000000 1.000000
vn 0.000000 0.000000 1.000000
vn 0.000000 0.000000 1.000000
vn -0.904399 0.426687 0.000000
vn -0.904399 0.426687 0.000000
vn -0.999999 -0.001400 0.000000
vn -0.999999 -0.001400 0.000000
vn 0.000000 -0.001400 -0.999999
vn 0.000000 -0.001400 -0.999999
vn 0.000000 0.426686 -0.904400
vn 0.000000 0.426686 -0.904400
vn 0.904399 0.426687 0.000000
vn 0.904399 0.426687 0.000000
vn 0.999999 -0.001400 0.000000
vn 0.999999 -0.001400 0.000000
vn 0.000000 0.426686 0.904400
vn 0.000000 0.426686 0.904400
vn 0.000000 -0.001400 0.999999
vn 0.000000 -0.001400 0.999999
vn -0.897812 -0.440380 0.000000
vn -0.897812 -0.440380 0.000000
vn 0.000000 -0.440379 -0.897812
vn 0.000000 -0.440379 -0.897812
vn 0.897812 -0.440380 0.000000
vn 0.897812 -0.440380 0.000000
vn 0.000000 -0.440379 0.897812
vn 0.000000 -0.440379 0.897812
s off
g pCube1
usemtl bakedSG
f 1/5/1 2/6/2 28/65/3 25/30/4
f 11/15/5 14/16/6 17/17/7 20/18/8
f 26/35/9 27/69/10 8/41/11 7/42/12
f 7/7/13 8/8/14 2/10/15 1/9/16
f 2/1/17 8/2/18 27/3/19 28/4/20
f 7/11/21 1/12/22 25/13/23 26/14/24
s 1
f 3/19/25 4/20/26 12/21/27 9/22/28
s 2
f 9/22/29 12/21/30 13/23/31 10/24/32
f 10/24/32 13/23/31 14/16/33 11/15/34
s 1
f 4/20/26 6/25/35 15/26/36 12/21/27
s 2
f 12/21/30 15/26/37 16/45/38 13/23/31
f 13/23/31 16/45/38 17/17/39 14/16/33
s 1
f 6/25/35 5/46/40 18/47/41 15/26/36
s 2
f 15/26/37 18/47/42 19/48/43 16/45/38
f 16/45/38 19/48/43 20/18/44 17/17/39
s 1
f 5/46/40 3/19/25 9/22/28 18/47/41
s 2
f 18/47/42 9/22/29 10/24/32 19/48/43
f 19/48/43 10/24/32 11/15/34 20/18/44
s off
f 22/27/45 21/28/46 3/31/47 5/32/48
f 5/49/49 6/50/50 23/51/51 22/52/52
f 24/33/53 23/34/54 6/37/55 4/38/56
f 21/53/57 24/63/58 4/55/59 3/56/60
s 3
f 26/14/61 25/13/62 29/39/63 30/40/64
s 4
f 30/67/65 31/68/66 27/36/67 26/70/68
s 5
f 28/4/69 27/3/70 31/43/71 32/44/72
s 6
f 25/66/73 28/29/74 32/61/75 29/60/76
s 3
f 30/40/64 29/39/63 21/28/77 22/27/78
s 4
f 22/71/79 23/72/80 31/58/66 30/57/65
s 5
f 32/44/72 31/43/71 23/34/81 24/33/82
s 6
f 29/62/76 32/59/75 24/54/83 21/64/84
